<mxfile host="65bd71144e" modified="2021-03-01T08:40:16.290Z" agent="5.0 (Windows NT 10.0; Win64; x64) AppleWebKit/537.36 (KHTML, like Gecko) Code/1.53.2 Chrome/87.0.4280.141 Electron/11.2.1 Safari/537.36" etag="KbASYgKNlxvL2v1sP-bY" version="14.2.4" type="embed" pages="2">
    <diagram id="MPLxO1EsJOzjnYgOcqR-" name="Page-1">
        <mxGraphModel dx="1204" dy="790" grid="1" gridSize="10" guides="1" tooltips="1" connect="1" arrows="1" fold="1" page="1" pageScale="1" pageWidth="850" pageHeight="1100" math="0" shadow="0">
            <root>
                <mxCell id="0"/>
                <mxCell id="1" parent="0"/>
                <mxCell id="2" value="github" style="shape=agent;offsetSize=8;strokeWidth=2;" parent="1" vertex="1">
                    <mxGeometry x="120" y="320" width="810" height="220" as="geometry"/>
                </mxCell>
                <mxCell id="4" value="architecture-iso-11783-part-10" style="rounded=1;whiteSpace=wrap;html=1;arcSize=60;strokeWidth=2;" parent="1" vertex="1">
                    <mxGeometry x="140" y="480" width="200" height="40" as="geometry"/>
                </mxCell>
                <mxCell id="5" value="&lt;span&gt;jaxb-iso-11783-part-10&lt;/span&gt;" style="rounded=1;whiteSpace=wrap;html=1;arcSize=60;strokeWidth=2;" parent="1" vertex="1">
                    <mxGeometry x="355" y="480" width="140" height="40" as="geometry"/>
                </mxCell>
                <mxCell id="6" value="geo-tools-iso-11783-part-10" style="rounded=1;whiteSpace=wrap;html=1;arcSize=60;strokeWidth=2;" parent="1" vertex="1">
                    <mxGeometry x="510" y="480" width="200" height="40" as="geometry"/>
                </mxCell>
                <mxCell id="7" value="geoserver-iso-11783-part-10" style="rounded=1;whiteSpace=wrap;html=1;arcSize=60;strokeWidth=2;" parent="1" vertex="1">
                    <mxGeometry x="730" y="480" width="170" height="40" as="geometry"/>
                </mxCell>
            </root>
        </mxGraphModel>
    </diagram>
    <diagram id="0wHOMFz3lM-lDjHlEkKa" name="Page-2">
        <mxGraphModel dx="1204" dy="790" grid="1" gridSize="10" guides="1" tooltips="1" connect="1" arrows="1" fold="1" page="1" pageScale="1" pageWidth="827" pageHeight="1169" math="0" shadow="0">
            <root>
                <mxCell id="F6bAOdz-GNzPXOjH49dD-0"/>
                <mxCell id="F6bAOdz-GNzPXOjH49dD-1" parent="F6bAOdz-GNzPXOjH49dD-0"/>
                <mxCell id="F6bAOdz-GNzPXOjH49dD-2" value="DecklGL Map" style="shape=agent;offsetSize=8;strokeWidth=2;" vertex="1" parent="F6bAOdz-GNzPXOjH49dD-1">
                    <mxGeometry x="320" y="100" width="100" height="60" as="geometry"/>
                </mxCell>
                <mxCell id="F6bAOdz-GNzPXOjH49dD-3" value="geoserver" style="shape=agent;offsetSize=8;strokeWidth=2;" vertex="1" parent="F6bAOdz-GNzPXOjH49dD-1">
                    <mxGeometry x="150" y="210" width="430" height="220" as="geometry"/>
                </mxCell>
                <mxCell id="F6bAOdz-GNzPXOjH49dD-4" value="Workspace 1" style="shape=agent;offsetSize=8;strokeWidth=2;" vertex="1" parent="F6bAOdz-GNzPXOjH49dD-1">
                    <mxGeometry x="180" y="230" width="100" height="60" as="geometry"/>
                </mxCell>
                <mxCell id="F6bAOdz-GNzPXOjH49dD-5" value="Workspace 2" style="shape=agent;offsetSize=8;strokeWidth=2;" vertex="1" parent="F6bAOdz-GNzPXOjH49dD-1">
                    <mxGeometry x="320" y="230" width="100" height="60" as="geometry"/>
                </mxCell>
                <mxCell id="F6bAOdz-GNzPXOjH49dD-6" value="Workspace n" style="shape=agent;offsetSize=8;strokeWidth=2;" vertex="1" parent="F6bAOdz-GNzPXOjH49dD-1">
                    <mxGeometry x="460" y="230" width="100" height="60" as="geometry"/>
                </mxCell>
                <mxCell id="F6bAOdz-GNzPXOjH49dD-8" value="" style="shape=useedge;vertical=true;endArrow=none;useSignPosition=left;useSignDirection=none;entryX=0.5;entryY=1;entryDx=0;entryDy=0;exitX=0.5;exitY=0;exitDx=0;exitDy=0;" edge="1" parent="F6bAOdz-GNzPXOjH49dD-1" source="F6bAOdz-GNzPXOjH49dD-5" target="F6bAOdz-GNzPXOjH49dD-2">
                    <mxGeometry height="160" relative="1" as="geometry">
                        <mxPoint x="350" y="480" as="sourcePoint"/>
                        <mxPoint x="350" y="320" as="targetPoint"/>
                    </mxGeometry>
                </mxCell>
                <mxCell id="F6bAOdz-GNzPXOjH49dD-9" value="MVT (Mapbox Vector Tiles)" style="text;html=1;align=center;verticalAlign=middle;resizable=0;points=[];autosize=1;" vertex="1" parent="F6bAOdz-GNzPXOjH49dD-1">
                    <mxGeometry x="370" y="170" width="160" height="20" as="geometry"/>
                </mxCell>
            </root>
        </mxGraphModel>
    </diagram>
</mxfile>